# xmcd
#
# Track frame offsets: 
#        150
#        21470
#        42395
#        68275
#        88865
#        120858
#        144201
#        164512
#        186817
#        210024
#        229099
#        246081
#        276668
#        302272
#        319827
#
# Disc length: 4568 seconds
#
# Revision: 0
# Processed by: cddbd v1.5.2PL0 Copyright (c) Steve Scherf et al.
# Submitted via: ExactAudioCopyFreeDBPlugin 1.0
#
DISCID=c311d60f
DTITLE=Various Artist - Nhac vang 5
DYEAR=1900
DGENRE=Ballad
TTITLE0=Giao Linh - Ngay buon
TTITLE1=Truong thanh - Chieu mua ai dua em ve
TTITLE2=Thanh Tuyen - Hai ky niem 1 chuyen di
TTITLE3=Thanh Thuy - Thu tim la vang
TTITLE4=Phuong Dung - Hoa no ve dem
TTITLE5=Truong Thanh Giao Linh - Hai trom hoa rung
TTITLE6=Giao Linh - Tuyet lanh
TTITLE7=Phuong Dung - Phan ma hong
TTITLE8=Truong Thanh - Loi ta tu
TTITLE9=Thanh Thuy - Hai loi mong
TTITLE10=Truong Thanh - Mot thoang suy tu
TTITLE11=Truong Thanh Tuyen - Mot chuyen xe hoa
TTITLE12=Giao Linh - Mot lan vay tay chao
TTITLE13=Phuong Dung - Neu mot mai
TTITLE14=Truong Thanh - Neo duong Ky Niem
EXTD=
EXTT0=
EXTT1=
EXTT2=
EXTT3=
EXTT4=
EXTT5=
EXTT6=
EXTT7=
EXTT8=
EXTT9=
EXTT10=
EXTT11=
EXTT12=
EXTT13=
EXTT14=
PLAYORDER=
